<svg width="22" height="21" viewBox="0 0 22 21" fill="none" xmlns="http://www.w3.org/2000/svg">
<path d="M16.1317 5.2134C15.9378 5.10532 15.7246 5.03658 15.5041 5.01113C15.2837 4.98567 15.0605 5.004 14.8471 5.06505C14.6337 5.12611 14.4345 5.2287 14.2608 5.36695C14.087 5.50521 13.9422 5.67642 13.8345 5.8708L10.6987 11.5243L8.90405 9.72636C8.74824 9.56474 8.56186 9.43583 8.35578 9.34715C8.1497 9.25846 7.92806 9.21178 7.70378 9.20983C7.4795 9.20788 7.25708 9.25069 7.0495 9.33577C6.84191 9.42086 6.65332 9.5465 6.49473 9.70539C6.33613 9.86427 6.21071 10.0532 6.12578 10.2612C6.04085 10.4691 5.99811 10.6919 6.00006 10.9166C6.00201 11.1413 6.04861 11.3633 6.13713 11.5698C6.22566 11.7762 6.35434 11.963 6.51566 12.1191L9.89387 15.5034C10.2131 15.824 10.6438 16 11.0881 16L11.322 15.9831C11.5809 15.9468 11.8279 15.8508 12.0434 15.7027C12.259 15.5545 12.4373 15.3583 12.5643 15.1294L14.6757 11.3221L16.7871 7.51472C16.8949 7.32051 16.9635 7.10692 16.9889 6.88616C17.0143 6.66539 16.996 6.44178 16.9352 6.22808C16.8743 6.01438 16.7721 5.81478 16.6342 5.64068C16.4963 5.46658 16.3256 5.32139 16.1317 5.2134Z" fill="white"/>
</svg>
