<svg width="267" height="267" viewBox="0 0 267 267" fill="none" xmlns="http://www.w3.org/2000/svg">
<path d="M69.5714 202.156C69.5714 206.358 71.2421 210.388 74.2159 213.359C77.1897 216.331 81.223 218 85.4286 218H180.571C184.777 218 188.81 216.331 191.784 213.359C194.758 210.388 196.429 206.358 196.429 202.156V91.25H69.5714V202.156ZM159.429 117.656C159.429 116.256 159.985 114.912 160.977 113.922C161.968 112.931 163.312 112.375 164.714 112.375C166.116 112.375 167.461 112.931 168.452 113.922C169.443 114.912 170 116.256 170 117.656V191.594C170 192.994 169.443 194.338 168.452 195.328C167.461 196.319 166.116 196.875 164.714 196.875C163.312 196.875 161.968 196.319 160.977 195.328C159.985 194.338 159.429 192.994 159.429 191.594V117.656ZM127.714 117.656C127.714 116.256 128.271 114.912 129.262 113.922C130.254 112.931 131.598 112.375 133 112.375C134.402 112.375 135.746 112.931 136.738 113.922C137.729 114.912 138.286 116.256 138.286 117.656V191.594C138.286 192.994 137.729 194.338 136.738 195.328C135.746 196.319 134.402 196.875 133 196.875C131.598 196.875 130.254 196.319 129.262 195.328C128.271 194.338 127.714 192.994 127.714 191.594V117.656ZM96 117.656C96 116.256 96.5569 114.912 97.5481 113.922C98.5394 112.931 99.8839 112.375 101.286 112.375C102.688 112.375 104.032 112.931 105.023 113.922C106.015 114.912 106.571 116.256 106.571 117.656V191.594C106.571 192.994 106.015 194.338 105.023 195.328C104.032 196.319 102.688 196.875 101.286 196.875C99.8839 196.875 98.5394 196.319 97.5481 195.328C96.5569 194.338 96 192.994 96 191.594V117.656ZM201.714 59.5626H162.071L158.966 53.3901C158.308 52.0705 157.295 50.9605 156.04 50.1849C154.785 49.4093 153.339 48.999 151.863 49.0001H114.104C112.631 48.9944 111.187 49.4032 109.937 50.1796C108.687 50.9561 107.681 52.0687 107.034 53.3901L103.929 59.5626H64.2857C62.8839 59.5626 61.5394 60.119 60.5481 61.1094C59.5569 62.0998 59 63.4431 59 64.8438V75.4063C59 76.807 59.5569 78.1503 60.5481 79.1407C61.5394 80.1311 62.8839 80.6875 64.2857 80.6875H201.714C203.116 80.6875 204.461 80.1311 205.452 79.1407C206.443 78.1503 207 76.807 207 75.4063V64.8438C207 63.4431 206.443 62.0998 205.452 61.1094C204.461 60.119 203.116 59.5626 201.714 59.5626V59.5626Z" fill="white"/>
</svg>
