<svg width="22" height="21" viewBox="0 0 22 21" fill="none" xmlns="http://www.w3.org/2000/svg">
<path d="M14.4832 5.43384L11.0001 8.91707C9.83914 7.75649 8.67779 6.59479 7.51662 5.43384C6.17336 4.0906 4.0912 6.17346 5.43334 7.51707C6.5947 8.67727 7.75642 9.83916 8.91647 11.0001C7.75589 12.1616 6.59485 13.3226 5.43334 14.4832C4.0912 15.826 6.17355 17.9083 7.51662 16.5664C8.6776 15.4051 9.83895 14.2435 10.9999 13.083L14.4831 16.5664C15.8263 17.9092 17.909 15.8262 16.5663 14.4832C15.405 13.3218 14.244 12.1609 13.0823 10.9997C14.2438 9.83841 15.4048 8.67708 16.5663 7.51594C17.9092 6.17346 15.8265 4.0906 14.4831 5.43459" fill="white"/>
</svg>
